<mxfile host="app.diagrams.net" agent="Mozilla/5.0 (X11; Ubuntu; Linux x86_64; rv:132.0) Gecko/20100101 Firefox/132.0" version="24.8.4">
  <diagram name="Page-1" id="e0hvthmGRacJmFZSzciv">
    <mxGraphModel dx="925" dy="501" grid="1" gridSize="10" guides="1" tooltips="1" connect="1" arrows="1" fold="1" page="1" pageScale="1" pageWidth="850" pageHeight="1100" math="0" shadow="0">
      <root>
        <mxCell id="0" />
        <mxCell id="1" parent="0" />
        <mxCell id="YZtAgBGEPlnPKmyo8EPG-1" value="" style="endArrow=classic;html=1;rounded=0;endFill=1;" parent="1" edge="1">
          <mxGeometry width="50" height="50" relative="1" as="geometry">
            <mxPoint x="200" y="430" as="sourcePoint" />
            <mxPoint x="560" y="430" as="targetPoint" />
          </mxGeometry>
        </mxCell>
        <mxCell id="YZtAgBGEPlnPKmyo8EPG-2" value="" style="endArrow=classic;html=1;rounded=0;endFill=1;" parent="1" edge="1">
          <mxGeometry width="50" height="50" relative="1" as="geometry">
            <mxPoint x="200" y="430" as="sourcePoint" />
            <mxPoint x="200" y="290" as="targetPoint" />
          </mxGeometry>
        </mxCell>
        <mxCell id="YZtAgBGEPlnPKmyo8EPG-3" value="" style="endArrow=none;html=1;rounded=0;" parent="1" edge="1">
          <mxGeometry width="50" height="50" relative="1" as="geometry">
            <mxPoint x="280" y="435" as="sourcePoint" />
            <mxPoint x="280" y="425" as="targetPoint" />
          </mxGeometry>
        </mxCell>
        <mxCell id="YZtAgBGEPlnPKmyo8EPG-5" value="" style="endArrow=none;html=1;rounded=0;" parent="1" edge="1">
          <mxGeometry width="50" height="50" relative="1" as="geometry">
            <mxPoint x="360" y="435" as="sourcePoint" />
            <mxPoint x="360" y="425" as="targetPoint" />
          </mxGeometry>
        </mxCell>
        <mxCell id="YZtAgBGEPlnPKmyo8EPG-6" value="" style="endArrow=none;html=1;rounded=0;" parent="1" edge="1">
          <mxGeometry width="50" height="50" relative="1" as="geometry">
            <mxPoint x="440" y="435" as="sourcePoint" />
            <mxPoint x="440" y="425" as="targetPoint" />
          </mxGeometry>
        </mxCell>
        <mxCell id="YZtAgBGEPlnPKmyo8EPG-7" value="" style="endArrow=none;html=1;rounded=0;" parent="1" edge="1">
          <mxGeometry width="50" height="50" relative="1" as="geometry">
            <mxPoint x="520" y="435" as="sourcePoint" />
            <mxPoint x="520" y="425" as="targetPoint" />
          </mxGeometry>
        </mxCell>
        <mxCell id="YZtAgBGEPlnPKmyo8EPG-9" value="Proces 1" style="rounded=1;whiteSpace=wrap;html=1;fillColor=none;" parent="1" vertex="1">
          <mxGeometry x="200" y="390" width="60" height="30" as="geometry" />
        </mxCell>
        <mxCell id="YZtAgBGEPlnPKmyo8EPG-10" value="Proces 2" style="rounded=1;whiteSpace=wrap;html=1;fillColor=none;" parent="1" vertex="1">
          <mxGeometry x="260" y="350" width="100" height="30" as="geometry" />
        </mxCell>
        <mxCell id="YZtAgBGEPlnPKmyo8EPG-11" value="Proces 3" style="rounded=1;whiteSpace=wrap;html=1;fillColor=none;" parent="1" vertex="1">
          <mxGeometry x="360" y="310" width="120" height="30" as="geometry" />
        </mxCell>
        <mxCell id="YZtAgBGEPlnPKmyo8EPG-12" value="Proces 2" style="rounded=1;whiteSpace=wrap;html=1;fillColor=none;" parent="1" vertex="1">
          <mxGeometry x="480" y="350" width="60" height="30" as="geometry" />
        </mxCell>
        <mxCell id="YZtAgBGEPlnPKmyo8EPG-13" value="CPU (lub VCPU) 1" style="text;html=1;align=center;verticalAlign=middle;resizable=0;points=[];autosize=1;strokeColor=none;fillColor=none;" parent="1" vertex="1">
          <mxGeometry x="340" y="444" width="120" height="30" as="geometry" />
        </mxCell>
        <mxCell id="YZtAgBGEPlnPKmyo8EPG-14" value="" style="endArrow=classic;html=1;rounded=0;endFill=1;" parent="1" edge="1">
          <mxGeometry width="50" height="50" relative="1" as="geometry">
            <mxPoint x="200" y="620" as="sourcePoint" />
            <mxPoint x="560" y="620" as="targetPoint" />
          </mxGeometry>
        </mxCell>
        <mxCell id="YZtAgBGEPlnPKmyo8EPG-15" value="" style="endArrow=classic;html=1;rounded=0;endFill=1;" parent="1" edge="1">
          <mxGeometry width="50" height="50" relative="1" as="geometry">
            <mxPoint x="200" y="620" as="sourcePoint" />
            <mxPoint x="200" y="480" as="targetPoint" />
          </mxGeometry>
        </mxCell>
        <mxCell id="YZtAgBGEPlnPKmyo8EPG-16" value="" style="endArrow=none;html=1;rounded=0;" parent="1" edge="1">
          <mxGeometry width="50" height="50" relative="1" as="geometry">
            <mxPoint x="280" y="625" as="sourcePoint" />
            <mxPoint x="280" y="615" as="targetPoint" />
          </mxGeometry>
        </mxCell>
        <mxCell id="YZtAgBGEPlnPKmyo8EPG-17" value="" style="endArrow=none;html=1;rounded=0;" parent="1" edge="1">
          <mxGeometry width="50" height="50" relative="1" as="geometry">
            <mxPoint x="360" y="625" as="sourcePoint" />
            <mxPoint x="360" y="615" as="targetPoint" />
          </mxGeometry>
        </mxCell>
        <mxCell id="YZtAgBGEPlnPKmyo8EPG-18" value="" style="endArrow=none;html=1;rounded=0;" parent="1" edge="1">
          <mxGeometry width="50" height="50" relative="1" as="geometry">
            <mxPoint x="440" y="625" as="sourcePoint" />
            <mxPoint x="440" y="615" as="targetPoint" />
          </mxGeometry>
        </mxCell>
        <mxCell id="YZtAgBGEPlnPKmyo8EPG-19" value="" style="endArrow=none;html=1;rounded=0;" parent="1" edge="1">
          <mxGeometry width="50" height="50" relative="1" as="geometry">
            <mxPoint x="520" y="625" as="sourcePoint" />
            <mxPoint x="520" y="615" as="targetPoint" />
          </mxGeometry>
        </mxCell>
        <mxCell id="YZtAgBGEPlnPKmyo8EPG-20" value="Proces 4" style="rounded=1;whiteSpace=wrap;html=1;fillColor=none;" parent="1" vertex="1">
          <mxGeometry x="200" y="580" width="120" height="30" as="geometry" />
        </mxCell>
        <mxCell id="YZtAgBGEPlnPKmyo8EPG-21" value="Proces 5" style="rounded=1;whiteSpace=wrap;html=1;fillColor=none;" parent="1" vertex="1">
          <mxGeometry x="320" y="540" width="60" height="30" as="geometry" />
        </mxCell>
        <mxCell id="YZtAgBGEPlnPKmyo8EPG-22" value="Proces 6" style="rounded=1;whiteSpace=wrap;html=1;fillColor=none;" parent="1" vertex="1">
          <mxGeometry x="380" y="500" width="60" height="30" as="geometry" />
        </mxCell>
        <mxCell id="YZtAgBGEPlnPKmyo8EPG-23" value="Proces 5" style="rounded=1;whiteSpace=wrap;html=1;fillColor=none;" parent="1" vertex="1">
          <mxGeometry x="440" y="540" width="100" height="30" as="geometry" />
        </mxCell>
        <mxCell id="YZtAgBGEPlnPKmyo8EPG-24" value="CPU (lub VCPU) 2" style="text;html=1;align=center;verticalAlign=middle;resizable=0;points=[];autosize=1;strokeColor=none;fillColor=none;" parent="1" vertex="1">
          <mxGeometry x="340" y="634" width="120" height="30" as="geometry" />
        </mxCell>
        <mxCell id="YZtAgBGEPlnPKmyo8EPG-33" style="edgeStyle=orthogonalEdgeStyle;rounded=0;orthogonalLoop=1;jettySize=auto;html=1;exitX=0.25;exitY=0;exitDx=0;exitDy=0;entryX=0;entryY=0.5;entryDx=0;entryDy=0;" parent="1" source="YZtAgBGEPlnPKmyo8EPG-28" target="YZtAgBGEPlnPKmyo8EPG-9" edge="1">
          <mxGeometry relative="1" as="geometry" />
        </mxCell>
        <mxCell id="YZtAgBGEPlnPKmyo8EPG-34" style="edgeStyle=orthogonalEdgeStyle;rounded=0;orthogonalLoop=1;jettySize=auto;html=1;exitX=0.75;exitY=0;exitDx=0;exitDy=0;entryX=0;entryY=0.5;entryDx=0;entryDy=0;" parent="1" source="YZtAgBGEPlnPKmyo8EPG-28" target="YZtAgBGEPlnPKmyo8EPG-20" edge="1">
          <mxGeometry relative="1" as="geometry" />
        </mxCell>
        <mxCell id="YZtAgBGEPlnPKmyo8EPG-28" value="&lt;div&gt;Proces 7&lt;/div&gt;" style="rounded=1;whiteSpace=wrap;html=1;fillColor=none;direction=south;textDirection=vertical-lr;labelBorderColor=none;" parent="1" vertex="1">
          <mxGeometry x="125" y="420" width="30" height="80" as="geometry" />
        </mxCell>
        <mxCell id="YZtAgBGEPlnPKmyo8EPG-29" value="&lt;div&gt;Proces 8&lt;br&gt;&lt;/div&gt;" style="rounded=1;whiteSpace=wrap;html=1;fillColor=none;direction=south;textDirection=vertical-lr;labelBorderColor=none;" parent="1" vertex="1">
          <mxGeometry x="95" y="420" width="30" height="80" as="geometry" />
        </mxCell>
        <mxCell id="YZtAgBGEPlnPKmyo8EPG-30" value="&lt;div&gt;Proces 9&lt;br&gt;&lt;/div&gt;" style="rounded=1;whiteSpace=wrap;html=1;fillColor=none;direction=south;textDirection=vertical-lr;labelBorderColor=none;" parent="1" vertex="1">
          <mxGeometry x="65" y="420" width="30" height="80" as="geometry" />
        </mxCell>
        <mxCell id="YZtAgBGEPlnPKmyo8EPG-31" value="..." style="text;html=1;align=center;verticalAlign=middle;resizable=0;points=[];autosize=1;strokeColor=none;fillColor=none;" parent="1" vertex="1">
          <mxGeometry x="35" y="445" width="30" height="30" as="geometry" />
        </mxCell>
        <mxCell id="YZtAgBGEPlnPKmyo8EPG-32" value="Kolejka" style="text;html=1;align=center;verticalAlign=middle;resizable=0;points=[];autosize=1;strokeColor=none;fillColor=none;" parent="1" vertex="1">
          <mxGeometry x="78" y="390" width="60" height="30" as="geometry" />
        </mxCell>
        <mxCell id="YZtAgBGEPlnPKmyo8EPG-35" value="Kwant czasu" style="text;html=1;align=center;verticalAlign=middle;resizable=0;points=[];autosize=1;strokeColor=none;fillColor=none;" parent="1" vertex="1">
          <mxGeometry x="540" y="430" width="90" height="30" as="geometry" />
        </mxCell>
        <mxCell id="YZtAgBGEPlnPKmyo8EPG-36" value="Kwant czasu" style="text;html=1;align=center;verticalAlign=middle;resizable=0;points=[];autosize=1;strokeColor=none;fillColor=none;" parent="1" vertex="1">
          <mxGeometry x="540" y="620" width="90" height="30" as="geometry" />
        </mxCell>
        <mxCell id="3SPh1YBkcugaMuCgU8ln-1" value="" style="endArrow=none;html=1;rounded=0;" edge="1" parent="1">
          <mxGeometry width="50" height="50" relative="1" as="geometry">
            <mxPoint x="220" y="435" as="sourcePoint" />
            <mxPoint x="220" y="425" as="targetPoint" />
          </mxGeometry>
        </mxCell>
        <mxCell id="3SPh1YBkcugaMuCgU8ln-2" value="" style="endArrow=none;html=1;rounded=0;" edge="1" parent="1">
          <mxGeometry width="50" height="50" relative="1" as="geometry">
            <mxPoint x="240" y="435" as="sourcePoint" />
            <mxPoint x="240" y="425" as="targetPoint" />
          </mxGeometry>
        </mxCell>
        <mxCell id="3SPh1YBkcugaMuCgU8ln-3" value="" style="endArrow=none;html=1;rounded=0;" edge="1" parent="1">
          <mxGeometry width="50" height="50" relative="1" as="geometry">
            <mxPoint x="260" y="435" as="sourcePoint" />
            <mxPoint x="260" y="425" as="targetPoint" />
          </mxGeometry>
        </mxCell>
        <mxCell id="3SPh1YBkcugaMuCgU8ln-5" value="" style="endArrow=none;html=1;rounded=0;" edge="1" parent="1">
          <mxGeometry width="50" height="50" relative="1" as="geometry">
            <mxPoint x="300" y="435" as="sourcePoint" />
            <mxPoint x="300" y="425" as="targetPoint" />
          </mxGeometry>
        </mxCell>
        <mxCell id="3SPh1YBkcugaMuCgU8ln-6" value="" style="endArrow=none;html=1;rounded=0;" edge="1" parent="1">
          <mxGeometry width="50" height="50" relative="1" as="geometry">
            <mxPoint x="320" y="435" as="sourcePoint" />
            <mxPoint x="320" y="425" as="targetPoint" />
          </mxGeometry>
        </mxCell>
        <mxCell id="3SPh1YBkcugaMuCgU8ln-7" value="" style="endArrow=none;html=1;rounded=0;" edge="1" parent="1">
          <mxGeometry width="50" height="50" relative="1" as="geometry">
            <mxPoint x="340" y="435" as="sourcePoint" />
            <mxPoint x="340" y="425" as="targetPoint" />
          </mxGeometry>
        </mxCell>
        <mxCell id="3SPh1YBkcugaMuCgU8ln-8" value="" style="endArrow=none;html=1;rounded=0;" edge="1" parent="1">
          <mxGeometry width="50" height="50" relative="1" as="geometry">
            <mxPoint x="380" y="435" as="sourcePoint" />
            <mxPoint x="380" y="425" as="targetPoint" />
          </mxGeometry>
        </mxCell>
        <mxCell id="3SPh1YBkcugaMuCgU8ln-9" value="" style="endArrow=none;html=1;rounded=0;" edge="1" parent="1">
          <mxGeometry width="50" height="50" relative="1" as="geometry">
            <mxPoint x="400" y="435" as="sourcePoint" />
            <mxPoint x="400" y="425" as="targetPoint" />
          </mxGeometry>
        </mxCell>
        <mxCell id="3SPh1YBkcugaMuCgU8ln-10" value="" style="endArrow=none;html=1;rounded=0;" edge="1" parent="1">
          <mxGeometry width="50" height="50" relative="1" as="geometry">
            <mxPoint x="420" y="435" as="sourcePoint" />
            <mxPoint x="420" y="425" as="targetPoint" />
          </mxGeometry>
        </mxCell>
        <mxCell id="3SPh1YBkcugaMuCgU8ln-11" value="" style="endArrow=none;html=1;rounded=0;" edge="1" parent="1">
          <mxGeometry width="50" height="50" relative="1" as="geometry">
            <mxPoint x="460" y="435" as="sourcePoint" />
            <mxPoint x="460" y="425" as="targetPoint" />
          </mxGeometry>
        </mxCell>
        <mxCell id="3SPh1YBkcugaMuCgU8ln-12" value="" style="endArrow=none;html=1;rounded=0;" edge="1" parent="1">
          <mxGeometry width="50" height="50" relative="1" as="geometry">
            <mxPoint x="480" y="435" as="sourcePoint" />
            <mxPoint x="480" y="425" as="targetPoint" />
          </mxGeometry>
        </mxCell>
        <mxCell id="3SPh1YBkcugaMuCgU8ln-13" value="" style="endArrow=none;html=1;rounded=0;" edge="1" parent="1">
          <mxGeometry width="50" height="50" relative="1" as="geometry">
            <mxPoint x="500" y="435" as="sourcePoint" />
            <mxPoint x="500" y="425" as="targetPoint" />
          </mxGeometry>
        </mxCell>
        <mxCell id="3SPh1YBkcugaMuCgU8ln-14" value="" style="endArrow=none;html=1;rounded=0;" edge="1" parent="1">
          <mxGeometry width="50" height="50" relative="1" as="geometry">
            <mxPoint x="540" y="435" as="sourcePoint" />
            <mxPoint x="540" y="425" as="targetPoint" />
          </mxGeometry>
        </mxCell>
        <mxCell id="3SPh1YBkcugaMuCgU8ln-15" value="" style="endArrow=none;html=1;rounded=0;" edge="1" parent="1">
          <mxGeometry width="50" height="50" relative="1" as="geometry">
            <mxPoint x="220" y="625" as="sourcePoint" />
            <mxPoint x="220" y="615" as="targetPoint" />
          </mxGeometry>
        </mxCell>
        <mxCell id="3SPh1YBkcugaMuCgU8ln-16" value="" style="endArrow=none;html=1;rounded=0;" edge="1" parent="1">
          <mxGeometry width="50" height="50" relative="1" as="geometry">
            <mxPoint x="240" y="625" as="sourcePoint" />
            <mxPoint x="240" y="615" as="targetPoint" />
          </mxGeometry>
        </mxCell>
        <mxCell id="3SPh1YBkcugaMuCgU8ln-17" value="" style="endArrow=none;html=1;rounded=0;" edge="1" parent="1">
          <mxGeometry width="50" height="50" relative="1" as="geometry">
            <mxPoint x="260" y="625" as="sourcePoint" />
            <mxPoint x="260" y="615" as="targetPoint" />
          </mxGeometry>
        </mxCell>
        <mxCell id="3SPh1YBkcugaMuCgU8ln-18" value="" style="endArrow=none;html=1;rounded=0;" edge="1" parent="1">
          <mxGeometry width="50" height="50" relative="1" as="geometry">
            <mxPoint x="300" y="625" as="sourcePoint" />
            <mxPoint x="300" y="615" as="targetPoint" />
          </mxGeometry>
        </mxCell>
        <mxCell id="3SPh1YBkcugaMuCgU8ln-19" value="" style="endArrow=none;html=1;rounded=0;" edge="1" parent="1">
          <mxGeometry width="50" height="50" relative="1" as="geometry">
            <mxPoint x="320" y="625" as="sourcePoint" />
            <mxPoint x="320" y="615" as="targetPoint" />
          </mxGeometry>
        </mxCell>
        <mxCell id="3SPh1YBkcugaMuCgU8ln-20" value="" style="endArrow=none;html=1;rounded=0;" edge="1" parent="1">
          <mxGeometry width="50" height="50" relative="1" as="geometry">
            <mxPoint x="340" y="625" as="sourcePoint" />
            <mxPoint x="340" y="615" as="targetPoint" />
          </mxGeometry>
        </mxCell>
        <mxCell id="3SPh1YBkcugaMuCgU8ln-21" value="" style="endArrow=none;html=1;rounded=0;" edge="1" parent="1">
          <mxGeometry width="50" height="50" relative="1" as="geometry">
            <mxPoint x="380" y="625" as="sourcePoint" />
            <mxPoint x="380" y="615" as="targetPoint" />
          </mxGeometry>
        </mxCell>
        <mxCell id="3SPh1YBkcugaMuCgU8ln-22" value="" style="endArrow=none;html=1;rounded=0;" edge="1" parent="1">
          <mxGeometry width="50" height="50" relative="1" as="geometry">
            <mxPoint x="400" y="625" as="sourcePoint" />
            <mxPoint x="400" y="615" as="targetPoint" />
          </mxGeometry>
        </mxCell>
        <mxCell id="3SPh1YBkcugaMuCgU8ln-23" value="" style="endArrow=none;html=1;rounded=0;" edge="1" parent="1">
          <mxGeometry width="50" height="50" relative="1" as="geometry">
            <mxPoint x="420" y="625" as="sourcePoint" />
            <mxPoint x="420" y="615" as="targetPoint" />
          </mxGeometry>
        </mxCell>
        <mxCell id="3SPh1YBkcugaMuCgU8ln-24" value="" style="endArrow=none;html=1;rounded=0;" edge="1" parent="1">
          <mxGeometry width="50" height="50" relative="1" as="geometry">
            <mxPoint x="460" y="625" as="sourcePoint" />
            <mxPoint x="460" y="615" as="targetPoint" />
          </mxGeometry>
        </mxCell>
        <mxCell id="3SPh1YBkcugaMuCgU8ln-25" value="" style="endArrow=none;html=1;rounded=0;" edge="1" parent="1">
          <mxGeometry width="50" height="50" relative="1" as="geometry">
            <mxPoint x="480" y="625" as="sourcePoint" />
            <mxPoint x="480" y="615" as="targetPoint" />
          </mxGeometry>
        </mxCell>
        <mxCell id="3SPh1YBkcugaMuCgU8ln-26" value="" style="endArrow=none;html=1;rounded=0;" edge="1" parent="1">
          <mxGeometry width="50" height="50" relative="1" as="geometry">
            <mxPoint x="500" y="625" as="sourcePoint" />
            <mxPoint x="500" y="615" as="targetPoint" />
          </mxGeometry>
        </mxCell>
        <mxCell id="3SPh1YBkcugaMuCgU8ln-27" value="" style="endArrow=none;html=1;rounded=0;" edge="1" parent="1">
          <mxGeometry width="50" height="50" relative="1" as="geometry">
            <mxPoint x="540" y="625" as="sourcePoint" />
            <mxPoint x="540" y="615" as="targetPoint" />
          </mxGeometry>
        </mxCell>
      </root>
    </mxGraphModel>
  </diagram>
</mxfile>
